<?xml version="1.0" encoding="UTF-8"?>
<svg width="393" height="519" viewBox="0 0 393 519" fill="none" xmlns="http://www.w3.org/2000/svg">
<path d="M22.3822 431.23C20.9422 416.01 16.5622 413.09 15.1422 391.37C13.7222 369.65 34.6722 352.2 34.6722 352.2C34.6722 352.2 10.7922 382.34 28.9022 413.82C31.7364 418.702 34.229 423.774 36.3622 429C31.8077 430.33 27.1042 431.082 22.3622 431.24M77.3622 330.54C71.6822 305.33 80.0122 287.35 86.4222 277.89C85.9022 289.04 87.3122 301.95 91.9222 316.74C94.4522 325.08 96.7522 333.16 98.6522 340.96C90.2322 339.96 80.7422 336.22 77.3622 330.54ZM125.202 295C108.482 242.45 115.842 221.1 115.842 221.1C115.842 221.1 96.6122 232.92 89.2222 260.1C77.2922 269.59 55.9122 295.21 56.4422 355.82C56.4422 355.82 73.8022 376.13 104.622 375.58C107.312 412.28 95.3122 441.37 53.7522 461.29C58.6522 452.85 60.5922 440.71 57.3322 425.95C63.8122 416.73 65.1522 408.7 65.1522 408.7C62.5582 412.726 59.3337 416.308 55.6022 419.31C53.7312 413.4 51.3384 407.667 48.4522 402.18C31.1122 368.9 47.0022 340.66 47.0022 340.66C-19.6878 368.9 5.74224 437 5.74224 437C-3.71776 445 1.36224 452.2 1.36224 452.2C18.6322 451.33 31.2722 447.02 40.4922 441.47C46.8822 468.23 32.4922 478.22 32.4922 478.22C144.062 450.76 141.922 347.16 125.202 295Z" fill="#D1A647"/>
<path d="M89.2222 219.81C91.8824 219.812 94.4834 219.025 96.6963 217.549C98.9093 216.073 100.635 213.973 101.655 211.516C102.674 209.06 102.943 206.355 102.426 203.746C101.909 201.137 100.629 198.739 98.7499 196.857C96.8703 194.974 94.4747 193.691 91.866 193.171C89.2573 192.65 86.5528 192.914 84.0944 193.93C81.636 194.946 79.5341 196.669 78.0545 198.879C76.575 201.09 75.7842 203.69 75.7822 206.35C75.7822 209.917 77.1976 213.337 79.7175 215.861C82.2374 218.384 85.6559 219.805 89.2222 219.81Z" fill="#D1A647"/>
<path d="M33.0821 331.37C35.5581 331.38 37.9812 330.655 40.0448 329.287C42.1085 327.919 43.7197 325.969 44.6745 323.684C45.6293 321.4 45.8848 318.884 45.4085 316.454C44.9323 314.024 43.7458 311.79 41.9993 310.035C40.2527 308.281 38.0247 307.083 35.5973 306.595C33.1699 306.107 30.6523 306.351 28.3633 307.295C26.0743 308.239 24.1169 309.84 22.7388 311.897C21.3608 313.954 20.6241 316.374 20.6221 318.85C20.6169 320.491 20.9351 322.116 21.5587 323.634C22.1823 325.151 23.0989 326.531 24.2562 327.693C25.4135 328.856 26.7887 329.78 28.3031 330.41C29.8176 331.041 31.4416 331.367 33.0821 331.37Z" fill="#D1A647"/>
<path d="M14.3719 350.06C16.2381 350.058 18.0618 349.503 19.6127 348.465C21.1636 347.427 22.372 345.952 23.0852 344.228C23.7985 342.503 23.9846 340.606 23.62 338.776C23.2555 336.945 22.3566 335.264 21.037 333.945C19.7174 332.625 18.0362 331.726 16.206 331.362C14.3757 330.997 12.4785 331.183 10.754 331.896C9.02946 332.61 7.55503 333.818 6.51699 335.369C5.47895 336.92 4.92387 338.743 4.9219 340.61C4.91926 341.851 5.16189 343.081 5.63587 344.229C6.10984 345.377 6.80582 346.42 7.68386 347.298C8.5619 348.176 9.6047 348.872 10.7524 349.346C11.9001 349.82 13.1302 350.062 14.3719 350.06Z" fill="#D1A647"/>
<path d="M302.252 393.52C302.252 393.52 292.252 388.82 274.922 388.82H169.922C186.262 371.46 224.332 336.25 260.262 340.16C302.862 344.83 302.262 393.52 302.262 393.52M355.002 225.78C324.002 183 282.002 151.64 265.612 111.4C236.842 40.72 296.762 0 296.762 0C296.762 0 223.762 43.12 235.662 136.54C236.559 143.223 238.237 149.778 240.662 156.07C249.662 180.43 268.762 202.07 289.212 224.44C314.712 252.44 342.322 281.62 355.032 318.73C360.703 340.717 361.766 363.64 358.155 386.057C354.545 408.475 346.339 429.905 334.052 449C341.512 415.74 334.812 363.73 320.052 341.41C310.052 323.67 293.882 309.72 268.262 306.12C242.812 303.18 216.482 324.12 197.402 344.25C239.242 272.74 231.972 237.4 210.842 168.62C188.092 94.45 233.492 67.53 233.492 67.53C233.492 67.53 153.762 112.43 182.962 208.53C206.962 287.43 198.752 327.4 177.582 366.41C167.652 377.95 159.212 388.84 159.212 388.84C157.502 391.58 155.722 394.27 153.922 397.05C181.362 326.49 179.132 292.79 159.552 232.88C138.932 169.55 168.252 142.24 168.252 142.24C168.252 142.24 108.252 185.54 136.252 275.57C164.252 365.6 128.932 426.16 128.932 426.16H291.552C293.382 426.16 295.162 426.3 296.762 426.36C305.592 428.08 316.492 434.1 315.672 455.27C314.992 471.63 302.342 486.57 282.522 499.82C269.767 507.791 255.97 513.956 241.522 518.14C327.442 502.68 392.572 427.55 392.572 337.28C392.636 296.996 379.433 257.811 355.002 225.78Z" fill="#D1A647"/>
<path d="M109.052 439.422C109.052 439.045 109.198 438.683 109.459 438.417C109.72 438.15 110.073 438 110.442 438C110.81 438 111.164 438.15 111.425 438.417C111.685 438.683 111.832 439.045 111.832 439.422V470.865C111.783 472.158 112.238 473.418 113.097 474.368C113.955 475.318 115.148 475.88 116.411 475.93H139.728C140.084 475.99 140.407 476.177 140.64 476.458C140.874 476.739 141.002 477.096 141.002 477.465C141.002 477.834 140.874 478.191 140.64 478.472C140.407 478.753 140.084 478.94 139.728 479H116.361C112.262 479 109.002 475.347 109.002 470.814L109.052 439.422Z" fill="#D1A647" stroke="#D1A647" stroke-width="4"/>
<path d="M152.527 476.002H167.586C168.856 475.957 170.056 475.433 170.925 474.543C171.794 473.653 172.261 472.469 172.225 471.25V466.369H152.507C151.214 466.428 149.997 466.973 149.119 467.887C148.242 468.8 147.773 470.008 147.816 471.25C147.797 471.858 147.903 472.464 148.128 473.033C148.354 473.601 148.695 474.121 149.131 474.563C149.567 475.005 150.09 475.359 150.669 475.606C151.248 475.853 151.873 475.987 152.507 476.002M167.492 453C168.516 453.032 169.524 453.258 170.456 453.666C171.389 454.074 172.228 454.654 172.926 455.375C173.623 456.095 174.165 456.941 174.52 457.864C174.876 458.786 175.037 459.767 174.996 460.75V471.25C174.996 475.503 171.654 479 167.565 479H152.527C150.483 478.859 148.571 477.981 147.174 476.541C145.778 475.101 145.002 473.207 145.002 471.24C145.002 469.273 145.778 467.379 147.174 465.939C148.571 464.499 150.483 463.62 152.527 463.48H172.245V460.75C172.269 460.134 172.166 459.519 171.942 458.941C171.718 458.363 171.377 457.834 170.939 457.382C170.502 456.931 169.976 456.566 169.391 456.31C168.807 456.054 168.176 455.911 167.534 455.889H146.685C146.291 455.874 145.918 455.715 145.642 455.444C145.366 455.174 145.208 454.813 145.201 454.434C145.201 454.056 145.357 453.692 145.635 453.424C145.913 453.155 146.29 453.003 146.685 453H167.492Z" fill="#D1A647"/>
<path d="M152.527 476.002H167.586C168.856 475.957 170.056 475.433 170.925 474.543C171.794 473.653 172.261 472.469 172.225 471.25V466.369H152.507C151.214 466.428 149.997 466.973 149.119 467.887C148.242 468.8 147.773 470.008 147.816 471.25C147.797 471.858 147.903 472.464 148.128 473.033C148.354 473.601 148.695 474.121 149.131 474.563C149.567 475.005 150.09 475.359 150.669 475.606C151.248 475.853 151.873 475.987 152.507 476.002M167.492 453C168.516 453.032 169.524 453.258 170.456 453.666C171.389 454.074 172.228 454.654 172.926 455.375C173.623 456.095 174.165 456.941 174.52 457.864C174.876 458.786 175.037 459.767 174.996 460.75V471.25C174.996 475.503 171.654 479 167.565 479H152.527C150.483 478.859 148.571 477.981 147.174 476.541C145.778 475.101 145.002 473.207 145.002 471.24C145.002 469.273 145.778 467.379 147.174 465.939C148.571 464.499 150.483 463.62 152.527 463.48H172.245V460.75C172.269 460.134 172.166 459.519 171.942 458.941C171.718 458.363 171.377 457.834 170.939 457.382C170.502 456.931 169.976 456.566 169.391 456.31C168.807 456.054 168.176 455.911 167.534 455.889H146.685C146.291 455.874 145.918 455.715 145.642 455.444C145.366 455.174 145.208 454.813 145.201 454.434C145.201 454.056 145.357 453.692 145.635 453.424C145.913 453.155 146.29 453.003 146.685 453H167.492Z" stroke="#D1A647" stroke-width="4"/>
<path d="M194.632 475.934C195.008 475.978 195.354 476.158 195.606 476.441C195.858 476.723 195.997 477.089 195.997 477.467C195.997 477.846 195.858 478.211 195.606 478.494C195.354 478.776 195.008 478.957 194.632 479H189.528C185.383 479 182.004 475.342 182.004 470.825V439.493C181.994 439.297 182.025 439.101 182.094 438.917C182.163 438.734 182.27 438.567 182.407 438.427C182.544 438.286 182.709 438.176 182.891 438.103C183.073 438.03 183.268 437.995 183.464 438.001C183.85 438.011 184.217 438.174 184.484 438.453C184.752 438.732 184.898 439.106 184.893 439.493V452.297H194.54C194.738 452.297 194.934 452.337 195.116 452.415C195.298 452.493 195.462 452.607 195.599 452.75C195.735 452.894 195.841 453.063 195.91 453.249C195.979 453.435 196.01 453.632 196 453.83C195.995 454.217 195.84 454.587 195.567 454.861C195.295 455.136 194.927 455.294 194.54 455.302H184.893V470.896C184.864 471.533 184.961 472.17 185.179 472.769C185.396 473.369 185.73 473.919 186.161 474.389C186.591 474.859 187.111 475.239 187.688 475.508C188.266 475.777 188.891 475.928 189.528 475.955L194.632 475.934Z" fill="#D1A647" stroke="#D1A647" stroke-width="4"/>
<path d="M213.735 475.934C214.084 475.978 214.405 476.158 214.639 476.441C214.873 476.723 215.002 477.089 215.002 477.467C215.002 477.846 214.873 478.211 214.639 478.494C214.405 478.776 214.084 478.957 213.735 479H208.993C205.125 479 202.005 475.341 202.005 470.825V439.492C201.993 439.299 202.018 439.105 202.08 438.923C202.141 438.741 202.236 438.575 202.36 438.435C202.484 438.294 202.634 438.183 202.799 438.109C202.965 438.034 203.143 437.997 203.323 438C203.683 438.013 204.024 438.176 204.275 438.454C204.526 438.732 204.667 439.104 204.669 439.492V452.297H213.64C213.824 452.294 214.007 452.332 214.177 452.409C214.346 452.486 214.5 452.6 214.626 452.744C214.753 452.888 214.85 453.059 214.912 453.246C214.974 453.433 214.999 453.632 214.986 453.83C214.989 454.022 214.956 454.213 214.889 454.391C214.823 454.57 214.724 454.732 214.599 454.869C214.473 455.006 214.324 455.115 214.159 455.189C213.995 455.263 213.818 455.301 213.64 455.301H204.669V470.896C204.623 472.184 205.052 473.439 205.862 474.387C206.673 475.335 207.798 475.899 208.993 475.955L213.735 475.934Z" fill="#D1A647" stroke="#D1A647" stroke-width="4"/>
<path d="M227.507 476.002H242.554C243.183 475.985 243.803 475.848 244.376 475.6C244.95 475.352 245.467 474.996 245.897 474.554C246.327 474.112 246.662 473.593 246.882 473.026C247.103 472.459 247.204 471.855 247.181 471.25V466.369H227.517C226.234 466.438 225.03 466.987 224.162 467.899C223.294 468.811 222.83 470.014 222.87 471.25C222.851 471.856 222.956 472.459 223.179 473.026C223.402 473.592 223.739 474.111 224.171 474.553C224.602 474.994 225.12 475.349 225.694 475.598C226.268 475.846 226.888 475.983 227.517 476.002M242.482 453C243.506 453.028 244.514 453.252 245.447 453.658C246.381 454.064 247.222 454.644 247.92 455.365C248.619 456.086 249.163 456.933 249.519 457.857C249.875 458.782 250.037 459.765 249.996 460.75V471.25C249.996 475.503 246.663 479 242.534 479H227.507C225.468 478.859 223.561 477.981 222.168 476.541C220.776 475.101 220.002 473.207 220.002 471.24C220.002 469.273 220.776 467.379 222.168 465.939C223.561 464.499 225.468 463.62 227.507 463.48H247.17V460.75C247.21 459.511 246.741 458.307 245.866 457.397C244.991 456.488 243.779 455.946 242.492 455.889H221.69C221.3 455.878 220.929 455.72 220.66 455.447C220.39 455.175 220.243 454.811 220.252 454.435C220.243 454.248 220.274 454.062 220.343 453.888C220.412 453.713 220.517 453.554 220.651 453.42C220.786 453.286 220.947 453.179 221.126 453.107C221.305 453.035 221.497 452.999 221.69 453H242.482Z" fill="#D1A647"/>
<path d="M227.507 476.002H242.554C243.183 475.985 243.803 475.848 244.376 475.6C244.95 475.352 245.467 474.996 245.897 474.554C246.327 474.112 246.662 473.593 246.882 473.026C247.103 472.459 247.204 471.855 247.181 471.25V466.369H227.517C226.234 466.438 225.03 466.987 224.162 467.899C223.294 468.811 222.83 470.014 222.87 471.25C222.851 471.856 222.956 472.459 223.179 473.026C223.402 473.592 223.739 474.111 224.171 474.553C224.602 474.994 225.12 475.349 225.694 475.598C226.268 475.846 226.888 475.983 227.517 476.002M242.482 453C243.506 453.028 244.514 453.252 245.447 453.658C246.381 454.064 247.222 454.644 247.92 455.365C248.619 456.086 249.163 456.933 249.519 457.857C249.875 458.782 250.037 459.765 249.996 460.75V471.25C249.996 475.503 246.663 479 242.534 479H227.507C225.468 478.859 223.561 477.981 222.168 476.541C220.776 475.101 220.002 473.207 220.002 471.24C220.002 469.273 220.776 467.379 222.168 465.939C223.561 464.499 225.468 463.62 227.507 463.48H247.17V460.75C247.21 459.511 246.741 458.307 245.866 457.397C244.991 456.488 243.779 455.946 242.492 455.889H221.69C221.3 455.878 220.929 455.72 220.66 455.447C220.39 455.175 220.243 454.811 220.252 454.435C220.243 454.248 220.274 454.062 220.343 453.888C220.412 453.713 220.517 453.554 220.651 453.42C220.786 453.286 220.947 453.179 221.126 453.107C221.305 453.035 221.497 452.999 221.69 453H242.482Z" stroke="#D1A647" stroke-width="4"/>
<path d="M264.368 441.05C263.107 441.098 261.916 441.653 261.054 442.595C260.192 443.537 259.729 444.789 259.767 446.078V452.474H269.289C269.478 452.478 269.664 452.52 269.837 452.598C270.009 452.677 270.165 452.79 270.294 452.93C270.423 453.071 270.524 453.236 270.589 453.417C270.655 453.598 270.685 453.791 270.677 453.983C270.68 454.37 270.538 454.743 270.28 455.026C270.022 455.309 269.667 455.48 269.289 455.503H259.767V477.412C259.79 477.612 259.772 477.813 259.714 478.005C259.655 478.196 259.558 478.373 259.428 478.523C259.297 478.673 259.138 478.793 258.959 478.875C258.78 478.957 258.586 479 258.389 479C258.193 479 257.999 478.957 257.82 478.875C257.641 478.793 257.481 478.673 257.351 478.523C257.221 478.373 257.124 478.196 257.065 478.005C257.007 477.813 256.988 477.612 257.012 477.412V446.078C256.947 444.012 257.684 442.004 259.062 440.491C260.44 438.978 262.347 438.082 264.368 438H272.613C272.801 438.001 272.987 438.041 273.159 438.117C273.332 438.193 273.487 438.304 273.617 438.443C273.746 438.582 273.847 438.747 273.913 438.926C273.979 439.106 274.009 439.297 274.001 439.489C274.012 439.882 273.874 440.264 273.615 440.555C273.356 440.846 272.997 441.024 272.613 441.05H264.368Z" fill="#D1A647" stroke="#D1A647" stroke-width="4"/>
<path d="M281.505 476.002H296.588C297.217 475.985 297.836 475.848 298.409 475.6C298.983 475.352 299.499 474.996 299.929 474.554C300.359 474.112 300.694 473.593 300.914 473.026C301.135 472.459 301.236 471.855 301.212 471.25V466.369H281.557C280.271 466.428 279.061 466.974 278.191 467.889C277.321 468.803 276.862 470.011 276.912 471.25C276.886 471.852 276.984 472.452 277.2 473.017C277.416 473.583 277.746 474.101 278.171 474.543C278.596 474.984 279.107 475.341 279.676 475.591C280.245 475.842 280.86 475.981 281.485 476.002M296.485 453C297.509 453.027 298.517 453.25 299.451 453.655C300.384 454.06 301.225 454.641 301.924 455.362C302.623 456.083 303.166 456.931 303.522 457.856C303.877 458.781 304.038 459.765 303.995 460.75V471.25C303.995 475.503 300.685 479 296.578 479H281.505C277.367 479 274.005 475.484 274.005 471.25C273.944 469.254 274.706 467.315 276.126 465.859C277.545 464.403 279.505 463.547 281.578 463.48H301.233V460.75C301.267 459.506 300.791 458.299 299.908 457.389C299.026 456.48 297.807 455.941 296.516 455.889H275.723C275.338 455.871 274.977 455.708 274.716 455.436C274.455 455.164 274.315 454.805 274.326 454.434C274.316 454.251 274.345 454.068 274.411 453.895C274.476 453.723 274.577 453.565 274.708 453.431C274.838 453.297 274.995 453.19 275.169 453.116C275.344 453.042 275.532 453.002 275.723 453H296.485Z" fill="#D1A647"/>
<path d="M281.505 476.002H296.588C297.217 475.985 297.836 475.848 298.409 475.6C298.983 475.352 299.499 474.996 299.929 474.554C300.359 474.112 300.694 473.593 300.914 473.026C301.135 472.459 301.236 471.855 301.212 471.25V466.369H281.557C280.271 466.428 279.061 466.974 278.191 467.889C277.321 468.803 276.862 470.011 276.912 471.25C276.886 471.852 276.984 472.452 277.2 473.017C277.416 473.583 277.746 474.101 278.171 474.543C278.596 474.984 279.107 475.341 279.676 475.591C280.245 475.842 280.86 475.981 281.485 476.002M296.485 453C297.509 453.027 298.517 453.25 299.451 453.655C300.384 454.06 301.225 454.641 301.924 455.362C302.623 456.083 303.166 456.931 303.522 457.856C303.877 458.781 304.038 459.765 303.995 460.75V471.25C303.995 475.503 300.685 479 296.578 479H281.505C277.367 479 274.005 475.484 274.005 471.25C273.944 469.254 274.706 467.315 276.126 465.859C277.545 464.403 279.505 463.547 281.578 463.48H301.233V460.75C301.267 459.506 300.791 458.299 299.908 457.389C299.026 456.48 297.807 455.941 296.516 455.889H275.723C275.338 455.871 274.977 455.708 274.716 455.436C274.455 455.164 274.315 454.805 274.326 454.434C274.316 454.251 274.345 454.068 274.411 453.895C274.476 453.723 274.577 453.565 274.708 453.431C274.838 453.297 274.995 453.19 275.169 453.116C275.344 453.042 275.532 453.002 275.723 453H296.485Z" stroke="#D1A647" stroke-width="4"/>
<path d="M296.642 54.4599H300.342C302.162 54.4599 303.342 54.2099 303.982 53.6599C304.307 53.4134 304.568 53.0919 304.742 52.7227C304.916 52.3535 304.999 51.9477 304.982 51.5399C304.98 50.9994 304.812 50.4725 304.502 50.0299C304.172 49.5887 303.73 49.2435 303.222 49.0299C302.218 48.766 301.179 48.6581 300.142 48.7099H296.652L296.642 54.4599ZM293.562 65.1499V46.1499H300.112C301.744 46.0718 303.379 46.2576 304.952 46.6999C305.936 47.0104 306.781 47.654 307.342 48.5199C307.9 49.3325 308.199 50.2943 308.202 51.2799C308.219 51.9591 308.099 52.6347 307.85 53.2668C307.601 53.8989 307.227 54.4746 306.752 54.9599C305.685 55.9914 304.283 56.6053 302.802 56.6899C303.399 56.9207 303.948 57.2597 304.422 57.6899C305.475 58.8531 306.413 60.1157 307.222 61.4599L309.552 65.1699H305.812L304.102 62.1699C303.313 60.5076 302.233 59.0004 300.912 57.7199C300.178 57.2497 299.311 57.032 298.442 57.0999H296.642V65.1499H293.562ZM301.322 40.6499C298.777 40.6371 296.274 41.2922 294.062 42.5499C291.721 43.7772 289.799 45.6747 288.542 47.9999C287.253 50.2424 286.571 52.7819 286.562 55.3683C286.553 57.9547 287.218 60.4987 288.492 62.7499C289.79 65.0383 291.697 66.9216 294.002 68.1899C296.245 69.4617 298.779 70.1302 301.357 70.1302C303.935 70.1302 306.469 69.4617 308.712 68.1899C311.017 66.9261 312.912 65.0278 314.172 62.7199C315.453 60.4731 316.127 57.9313 316.127 55.3449C316.127 52.7585 315.453 50.2167 314.172 47.9699C312.897 45.6588 310.97 43.7738 308.632 42.5499C306.429 41.2964 303.936 40.6414 301.402 40.6499M301.402 37.6499C304.424 37.6722 307.388 38.4821 310.002 39.9999C312.79 41.4948 315.08 43.7714 316.592 46.5499C318.172 49.2307 319.001 52.2879 318.992 55.3999C318.996 58.502 318.193 61.5518 316.662 64.2499C315.13 66.9949 312.861 69.2568 310.112 70.7799C307.432 72.3007 304.403 73.1002 301.322 73.1002C298.24 73.1002 295.212 72.3007 292.532 70.7799C289.761 69.2673 287.474 67.004 285.932 64.2499C284.433 61.5404 283.642 58.4964 283.632 55.3999C283.649 52.2858 284.465 49.2282 286.002 46.5199C287.545 43.7695 289.833 41.5098 292.602 39.9999C295.265 38.504 298.268 37.7188 301.322 37.7199" fill="#D1A647"/>
</svg>
